<?xml version="1.0" encoding="UTF-8"?>
<!DOCTYPE svg PUBLIC "-//W3C//DTD SVG 1.1//EN" "http://www.w3.org/Graphics/SVG/1.1/DTD/svg11.dtd">
<!-- Creator: CorelDRAW 2018 (64 Bit) -->
<svg xmlns="http://www.w3.org/2000/svg" xml:space="preserve" width="16.9334mm" height="16.9336mm" version="1.1" style="shape-rendering:geometricPrecision; text-rendering:geometricPrecision; image-rendering:optimizeQuality; fill-rule:evenodd; clip-rule:evenodd"
viewBox="0 0 337.1 337.11"
 xmlns:xlink="http://www.w3.org/1999/xlink">
 <defs>
  <style type="text/css">
   <![CDATA[
    .fil0 {fill:black}
   ]]>
  </style>
 </defs>
 <g id="Camada_x0020_1">
  <metadata id="CorelCorpID_0Corel-Layer"/>
  <path class="fil0" d="M140.33 196.39c0,14.52 -10.54,19.11 -23.48,19.11l-33.94 0 0 -39.81 34.61 0c14,0.08 22.8,5.87 22.8,20.69l0 0zm-5.79 -61.93c0,-13.32 -10.31,-16.48 -21.75,-16.48l-29.8 0 0 33.71 32.13 0c11.36,0 19.41,-4.96 19.41,-17.23l0 0zm99.55 17.46c-13.77,0 -22.95,8.58 -23.85,22.35l46.8 0c-1.28,-13.92 -8.5,-22.35 -22.95,-22.35zm103.01 -115.8l0 264.87c0,19.94 -16.18,36.12 -36.12,36.12l-264.87 0c-19.94,0 -36.12,-16.18 -36.12,-36.12l0 -264.87c0,-19.94 16.18,-36.12 36.12,-36.12l264.87 0c19.94,0 36.12,16.18 36.12,36.12l0 0zm-132.66 79.01l58.54 0 0 -14.22 -58.54 0 0 14.22zm-32.36 83c0,-18.14 -8.58,-33.79 -26.34,-38.83 12.94,-6.17 19.71,-13.32 19.71,-27.84 0,-28.74 -21.44,-35.74 -46.2,-35.74l-68.1 0 0 144.47 70.05 0c26.26,-0.15 50.87,-12.72 50.87,-42.06l0 0zm113.85 -11.14c0,-30.93 -18.14,-56.74 -50.87,-56.74 -31.9,0 -53.5,23.93 -53.5,55.38 0,32.58 20.54,54.93 53.5,54.93 24.98,0 41.16,-11.21 48.99,-35.22l-25.36 0c-2.79,8.95 -13.99,13.62 -22.72,13.62 -16.86,0 -25.66,-9.86 -25.66,-26.56l75.4 0c0.08,-1.73 0.23,-3.61 0.23,-5.42z"/>
 </g>
</svg>
