<?xml version="1.0" encoding="UTF-8"?>
<!DOCTYPE svg PUBLIC "-//W3C//DTD SVG 1.1//EN" "http://www.w3.org/Graphics/SVG/1.1/DTD/svg11.dtd">
<!-- Creator: CorelDRAW 2018 (64 Bit) -->
<svg xmlns="http://www.w3.org/2000/svg" xml:space="preserve" width="12.7mm" height="12.7mm" version="1.1" style="shape-rendering:geometricPrecision; text-rendering:geometricPrecision; image-rendering:optimizeQuality; fill-rule:evenodd; clip-rule:evenodd"
viewBox="0 0 65.65 65.65"
 xmlns:xlink="http://www.w3.org/1999/xlink">
 <defs>
  <style type="text/css">
   <![CDATA[
    .fil0 {fill:#24292F}
   ]]>
  </style>
 </defs>
 <g id="Camada_x0020_1">
  <metadata id="CorelCorpID_0Corel-Layer"/>
  <path class="fil0" d="M58.62 0l-51.59 0c-3.88,0 -7.03,3.15 -7.03,7.03l0 51.59c0,3.88 3.15,7.03 7.03,7.03l51.59 0c3.88,0 7.03,-3.15 7.03,-7.03l0 -51.59c0,-3.88 -3.15,-7.03 -7.03,-7.03l0 0zm-2.81 45.27c0,-6.05 -3.55,-11.11 -9.96,-11.11 -6.25,0 -10.47,4.68 -10.47,10.84 0,6.38 4.02,10.75 10.47,10.75 4.89,0 8.06,-2.2 9.59,-6.89l-4.96 0c-0.54,1.75 -2.74,2.67 -4.45,2.67 -3.3,0 -5.02,-1.93 -5.02,-5.2l14.76 0c0.01,-0.34 0.04,-0.71 0.04,-1.06zm-10.15 -6.86c-2.7,0 -4.49,1.68 -4.67,4.37l9.16 0c-0.25,-2.72 -1.66,-4.37 -4.49,-4.37zm-12.14 9.04c0,-3.55 -1.68,-6.61 -5.16,-7.6 2.53,-1.21 3.86,-2.61 3.86,-5.45 0,-5.63 -4.2,-7 -9.04,-7l-13.33 0 0 28.28 13.71 0c5.14,-0.03 9.96,-2.49 9.96,-8.23l0 0zm-6.22 -0.34c0,2.84 -2.06,3.74 -4.6,3.74l-6.64 0 0 -7.79 6.78 0c2.74,0.01 4.46,1.15 4.46,4.05l0 0zm-1.13 -12.12c0,-2.61 -2.02,-3.23 -4.26,-3.23l-5.83 0 0 6.6 6.29 0c2.22,0 3.8,-0.97 3.8,-3.37l0 0zm13.68 -3.79l11.46 0 0 -2.78 -11.46 0 0 2.78z"/>
 </g>
</svg>
