<?xml version="1.0" encoding="UTF-8"?>
<!DOCTYPE svg PUBLIC "-//W3C//DTD SVG 1.1//EN" "http://www.w3.org/Graphics/SVG/1.1/DTD/svg11.dtd">
<!-- Creator: CorelDRAW 2018 (64 Bit) -->
<svg xmlns="http://www.w3.org/2000/svg" xml:space="preserve" width="12.7mm" height="12.7002mm" version="1.1" style="shape-rendering:geometricPrecision; text-rendering:geometricPrecision; image-rendering:optimizeQuality; fill-rule:evenodd; clip-rule:evenodd"
viewBox="0 0 199.55 199.55"
 xmlns:xlink="http://www.w3.org/1999/xlink">
 <defs>
  <style type="text/css">
   <![CDATA[
    .fil0 {fill:black}
   ]]>
  </style>
 </defs>
 <g id="Camada_x0020_1">
  <metadata id="CorelCorpID_0Corel-Layer"/>
  <path class="fil0" d="M83.07 116.26c0,8.6 -6.24,11.31 -13.9,11.31l-20.09 0 0 -23.56 20.49 0c8.29,0.04 13.5,3.47 13.5,12.25l0 0zm-3.43 -36.66c0,-7.88 -6.1,-9.75 -12.87,-9.75l-17.64 0 0 19.95 19.02 0c6.72,0 11.49,-2.94 11.49,-10.2l0 0zm58.93 10.33c-8.15,0 -13.59,5.08 -14.12,13.23l27.71 0c-0.76,-8.24 -5.03,-13.23 -13.59,-13.23zm60.98 -68.55l0 156.79c0,11.8 -9.58,21.38 -21.38,21.38l-156.79 0c-11.8,0 -21.38,-9.58 -21.38,-21.38l0 -156.79c0,-11.8 9.58,-21.38 21.38,-21.38l156.79 0c11.8,0 21.38,9.58 21.38,21.38l0 0zm-78.53 46.77l34.65 0 0 -8.42 -34.65 0 0 8.42zm-19.15 49.13c0,-10.73 -5.08,-20 -15.59,-22.98 7.66,-3.65 11.67,-7.88 11.67,-16.48 0,-17.02 -12.69,-21.16 -27.35,-21.16l-40.31 0 0 85.52 41.47 0c15.55,-0.09 30.11,-7.53 30.11,-24.9l0 0zm67.39 -6.59c0,-18.31 -10.73,-33.58 -30.11,-33.58 -18.89,0 -31.67,14.16 -31.67,32.78 0,19.29 12.16,32.52 31.67,32.52 14.79,0 24.36,-6.64 29,-20.85l-15.01 0c-1.65,5.3 -8.28,8.06 -13.45,8.06 -9.98,0 -15.19,-5.83 -15.19,-15.72l44.63 0c0.05,-1.02 0.13,-2.14 0.13,-3.21z"/>
 </g>
</svg>
