<?xml version="1.0" encoding="UTF-8"?>
<!DOCTYPE svg PUBLIC "-//W3C//DTD SVG 1.1//EN" "http://www.w3.org/Graphics/SVG/1.1/DTD/svg11.dtd">
<!-- Creator: CorelDRAW 2018 (64 Bit) -->
<svg xmlns="http://www.w3.org/2000/svg" xml:space="preserve" width="16.2256mm" height="12.7mm" version="1.1" style="shape-rendering:geometricPrecision; text-rendering:geometricPrecision; image-rendering:optimizeQuality; fill-rule:evenodd; clip-rule:evenodd"
viewBox="0 0 92.82 72.65"
 xmlns:xlink="http://www.w3.org/1999/xlink">
 <defs>
  <style type="text/css">
   <![CDATA[
    .fil0 {fill:#24292F}
   ]]>
  </style>
 </defs>
 <g id="Camada_x0020_1">
  <metadata id="CorelCorpID_0Corel-Layer"/>
  <path class="fil0" d="M10.08 13.87c-0.09,3.85 -0.51,8.06 -1.62,11.68 -1.56,5.03 -4.17,8.21 -8.47,8.61l0 4.62c4.28,0.41 6.91,3.58 8.47,8.61 1.08,3.52 1.52,7.61 1.62,11.38l0 6.09c0,4.3 3.49,7.78 7.78,7.78l57.08 0c4.3,0 7.78,-3.49 7.78,-7.78l0 -6.09c0.1,-3.77 0.53,-7.85 1.62,-11.38 1.56,-5.03 4.19,-8.21 8.47,-8.61l0 -4.62c-4.3,-0.41 -6.91,-3.59 -8.47,-8.61 -1.11,-3.62 -1.53,-7.83 -1.62,-11.68l0 -6.09c0,-4.3 -3.49,-7.78 -7.78,-7.78l0 0 -57.08 0c-4.3,0 -7.78,3.49 -7.78,7.78l0 6.09zm37.52 41.78l-15.88 0 0 -38.65 15.8 0c7.02,0 11.63,3.8 11.63,9.63 0,4.1 -3.1,7.77 -7.06,8.4l0 0.21c5.38,0.58 9,4.32 9,9.46 0,6.83 -5.08,10.95 -13.5,10.95zm-1.62 -17.63l-8.13 0 0 12.72 8.48 0c5.55,0 8.48,-2.22 8.48,-6.41 0,-4.17 -3.02,-6.31 -8.84,-6.31zm7.02 -10.54c0,-3.59 -2.53,-5.56 -6.97,-5.56l-8.18 0 0 11.55 6.89 0c5.32,-0.02 8.26,-2.16 8.26,-5.98z"/>
 </g>
</svg>
