<?xml version="1.0" encoding="UTF-8"?>
<!DOCTYPE svg PUBLIC "-//W3C//DTD SVG 1.1//EN" "http://www.w3.org/Graphics/SVG/1.1/DTD/svg11.dtd">
<!-- Creator: CorelDRAW 2018 (64 Bit) -->
<svg xmlns="http://www.w3.org/2000/svg" xml:space="preserve" width="10.8854mm" height="12.7mm" version="1.1" style="shape-rendering:geometricPrecision; text-rendering:geometricPrecision; image-rendering:optimizeQuality; fill-rule:evenodd; clip-rule:evenodd"
viewBox="0 0 76.27 88.98"
 xmlns:xlink="http://www.w3.org/1999/xlink">
 <defs>
  <style type="text/css">
   <![CDATA[
    .fil0 {fill:#24292F}
   ]]>
  </style>
 </defs>
 <g id="Camada_x0020_1">
  <metadata id="CorelCorpID_0Corel-Layer"/>
  <path class="fil0" d="M-0 0l6.93 78.61 31.2 10.37 31.2 -10.37 6.93 -78.61 -76.27 0zm62.19 15.89l-0.95 9.39 -22.9 9.79 -0.06 0.02 22.15 0 -2.54 29.12 -19.5 5.7 -19.62 -5.8 -1.27 -14.68 9.71 0 0.64 7.61 10.45 2.64 10.86 -3.06 0.73 -12.23 -33.03 -0.1 0 -0.02 -0.04 0.02 -0.71 -9.2 22.26 -9.27 1.29 -0.54 -24.41 -0 -1.15 -9.39 48.1 0z"/>
 </g>
</svg>
