<?xml version="1.0" encoding="UTF-8"?>
<!DOCTYPE svg PUBLIC "-//W3C//DTD SVG 1.1//EN" "http://www.w3.org/Graphics/SVG/1.1/DTD/svg11.dtd">
<!-- Creator: CorelDRAW 2018 (64 Bit) -->
<svg xmlns="http://www.w3.org/2000/svg" xml:space="preserve" width="12.7mm" height="12.7mm" version="1.1" style="shape-rendering:geometricPrecision; text-rendering:geometricPrecision; image-rendering:optimizeQuality; fill-rule:evenodd; clip-rule:evenodd"
viewBox="0 0 92.18 92.18"
 xmlns:xlink="http://www.w3.org/1999/xlink">
 <defs>
  <style type="text/css">
   <![CDATA[
    .fil0 {fill:#24292F}
   ]]>
  </style>
 </defs>
 <g id="Camada_x0020_1">
  <metadata id="CorelCorpID_0Corel-Layer"/>
  <path class="fil0" d="M82.31 0l-72.43 0c-5.45,0 -9.88,4.42 -9.88,9.88l0 72.43c0,5.45 4.42,9.88 9.88,9.88l72.43 0c5.45,0 9.88,-4.42 9.88,-9.88l0 -72.43c0,-5.45 -4.42,-9.88 -9.88,-9.88l0 0zm-36.21 21.83c-13.36,0 -24.2,10.84 -24.2,24.2 0,13.36 10.84,24.2 24.2,24.2 2.23,0 4.03,1.8 4.03,4.03 0,2.23 -1.8,4.03 -4.03,4.03 -17.82,0 -32.26,-14.44 -32.26,-32.26 0,-17.82 14.44,-32.26 32.26,-32.26 17.82,0 32.26,14.44 32.26,32.26l0 4.03c0,6.68 -5.42,12.1 -12.1,12.1 -3.69,0 -7.01,-1.66 -9.23,-4.27 -2.87,2.65 -6.72,4.27 -10.94,4.27 -8.91,0 -16.13,-7.22 -16.13,-16.13 0,-8.91 7.22,-16.13 16.13,-16.13 3.52,0 6.77,1.12 9.41,3.04 0.72,-0.63 1.65,-1.02 2.68,-1.02 2.23,0 4.03,1.8 4.03,4.03l0 10.08 0 4.03c0,2.23 1.8,4.03 4.03,4.03 2.23,0 4.03,-1.8 4.03,-4.03l0 -4.03c0,-13.36 -10.84,-24.2 -24.2,-24.2zm8.07 24.2c0,-4.45 -3.62,-8.07 -8.07,-8.07 -4.45,0 -8.07,3.62 -8.07,8.07 0,4.45 3.62,8.07 8.07,8.07 4.45,0 8.07,-3.62 8.07,-8.07z"/>
 </g>
</svg>
