<?xml version="1.0" encoding="UTF-8"?>
<!DOCTYPE svg PUBLIC "-//W3C//DTD SVG 1.1//EN" "http://www.w3.org/Graphics/SVG/1.1/DTD/svg11.dtd">
<!-- Creator: CorelDRAW 2018 (64 Bit) -->
<svg xmlns="http://www.w3.org/2000/svg" xml:space="preserve" width="12.7mm" height="12.7mm" version="1.1" style="shape-rendering:geometricPrecision; text-rendering:geometricPrecision; image-rendering:optimizeQuality; fill-rule:evenodd; clip-rule:evenodd"
viewBox="0 0 74.62 74.62"
 xmlns:xlink="http://www.w3.org/1999/xlink">
 <defs>
  <style type="text/css">
   <![CDATA[
    .fil0 {fill:#24292F}
   ]]>
  </style>
 </defs>
 <g id="Camada_x0020_1">
  <metadata id="CorelCorpID_0Corel-Layer"/>
  <path class="fil0" d="M66.63 0l-58.63 0c-4.41,0 -8,3.58 -8,8l0 58.63c0,4.41 3.58,8 8,8l58.63 0c4.41,0 8,-3.58 8,-8l0 -58.63c0,-4.41 -3.58,-8 -8,-8l0 0zm-26.02 58.2c0,7.26 -4.26,10.58 -10.48,10.58 -5.61,0 -8.86,-2.9 -10.53,-6.41l5.71 -3.45c1.1,1.95 2.1,3.6 4.51,3.6 2.3,0 3.76,-0.9 3.76,-4.41l0 -23.84 7.01 0 0 23.94zm16.59 10.58c-6.51,0 -10.73,-3.1 -12.78,-7.16l5.71 -3.3c1.5,2.45 3.46,4.26 6.91,4.26 2.9,0 4.76,-1.45 4.76,-3.46 0,-2.4 -1.9,-3.25 -5.11,-4.66l-1.75 -0.75c-5.06,-2.15 -8.41,-4.86 -8.41,-10.58 0,-5.26 4.01,-9.26 10.26,-9.26 4.46,0 7.66,1.55 9.96,5.61l-5.46 3.5c-1.2,-2.15 -2.5,-3 -4.51,-3 -2.05,0 -3.35,1.3 -3.35,3 0,2.1 1.3,2.95 4.31,4.26l1.75 0.75c5.96,2.55 9.31,5.16 9.31,11.03 0,6.3 -4.96,9.76 -11.61,9.76l0 0z"/>
 </g>
</svg>
