<?xml version="1.0" encoding="UTF-8"?>
<!DOCTYPE svg PUBLIC "-//W3C//DTD SVG 1.1//EN" "http://www.w3.org/Graphics/SVG/1.1/DTD/svg11.dtd">
<!-- Creator: CorelDRAW 2018 (64 Bit) -->
<svg xmlns="http://www.w3.org/2000/svg" xml:space="preserve" width="1.6932mm" height="1.6932mm" version="1.1" style="shape-rendering:geometricPrecision; text-rendering:geometricPrecision; image-rendering:optimizeQuality; fill-rule:evenodd; clip-rule:evenodd"
viewBox="0 0 4.1 4.1"
 xmlns:xlink="http://www.w3.org/1999/xlink">
 <defs>
  <style type="text/css">
   <![CDATA[
    .fil0 {fill:black}
   ]]>
  </style>
 </defs>
 <g id="Camada_x0020_1">
  <metadata id="CorelCorpID_0Corel-Layer"/>
  <path class="fil0" d="M3.81 0l-3.52 0c-0.16,0 -0.29,0.13 -0.29,0.3l0 3.51c0,0.16 0.13,0.3 0.29,0.3l3.52 0c0.16,0 0.29,-0.13 0.29,-0.3l0 -3.51c0,-0.16 -0.13,-0.3 -0.29,-0.3zm-2.57 3.52l-0.61 0 0 -1.96 0.61 0 0 1.96 -0 0zm-0.3 -2.23c-0.2,0 -0.35,-0.16 -0.35,-0.35 0,-0.19 0.16,-0.35 0.35,-0.35 0.19,0 0.35,0.16 0.35,0.35 0,0.2 -0.16,0.35 -0.35,0.35zm2.58 2.23l-0.61 0 0 -0.95c0,-0.23 -0,-0.52 -0.32,-0.52 -0.32,0 -0.37,0.25 -0.37,0.5l0 0.97 -0.61 0 0 -1.96 0.58 0 0 0.27 0.01 0c0.08,-0.15 0.28,-0.32 0.58,-0.32 0.62,0 0.73,0.41 0.73,0.93l0 1.07z"/>
 </g>
</svg>
