<?xml version="1.0" encoding="UTF-8"?>
<!DOCTYPE svg PUBLIC "-//W3C//DTD SVG 1.1//EN" "http://www.w3.org/Graphics/SVG/1.1/DTD/svg11.dtd">
<!-- Creator: CorelDRAW 2018 (64 Bit) -->
<svg xmlns="http://www.w3.org/2000/svg" xml:space="preserve" width="12.7mm" height="12.7mm" version="1.1" style="shape-rendering:geometricPrecision; text-rendering:geometricPrecision; image-rendering:optimizeQuality; fill-rule:evenodd; clip-rule:evenodd"
viewBox="0 0 117.24 117.24"
 xmlns:xlink="http://www.w3.org/1999/xlink">
 <defs>
  <style type="text/css">
   <![CDATA[
    .fil0 {fill:#24292F}
   ]]>
  </style>
 </defs>
 <g id="Camada_x0020_1">
  <metadata id="CorelCorpID_0Corel-Layer"/>
  <path class="fil0" d="M104.68 0l-92.12 0c-6.93,0 -12.56,5.63 -12.56,12.56l0 92.12c0,6.93 5.63,12.56 12.56,12.56l92.12 0c6.93,0 12.56,-5.63 12.56,-12.56l0 -92.12c0,-6.93 -5.63,-12.56 -12.56,-12.56l0 0zm-5.02 99.58l-17 0 0 -26.62c0,-6.35 -0.13,-14.51 -8.83,-14.51 -8.86,0 -10.21,6.91 -10.21,14.05l0 27.08 -17 0 0 -54.73 16.31 0 0 7.47 0.23 0c2.28,-4.3 7.83,-8.83 16.1,-8.83 17.2,0 20.4,11.34 20.4,26.09l0 30zm-72.21 -62.21c-5.45,0 -9.86,-4.43 -9.86,-9.86 0,-5.43 4.4,-9.86 9.86,-9.86 5.43,0 9.85,4.43 9.85,9.86 0,5.45 -4.4,9.86 -9.85,9.86zm8.5 62.21l-17 0 0 -54.73 17.02 0 0 54.73 -0.03 0z"/>
 </g>
</svg>
