<?xml version="1.0" encoding="UTF-8"?>
<!DOCTYPE svg PUBLIC "-//W3C//DTD SVG 1.1//EN" "http://www.w3.org/Graphics/SVG/1.1/DTD/svg11.dtd">
<!-- Creator: CorelDRAW 2018 (64 Bit) -->
<svg xmlns="http://www.w3.org/2000/svg" xml:space="preserve" width="8.4667mm" height="8.4666mm" version="1.1" style="shape-rendering:geometricPrecision; text-rendering:geometricPrecision; image-rendering:optimizeQuality; fill-rule:evenodd; clip-rule:evenodd"
viewBox="0 0 61.72 61.71"
 xmlns:xlink="http://www.w3.org/1999/xlink">
 <defs>
  <style type="text/css">
   <![CDATA[
    .fil0 {fill:black}
   ]]>
  </style>
 </defs>
 <g id="Camada_x0020_1">
  <metadata id="CorelCorpID_0Corel-Layer"/>
  <path class="fil0" d="M57.31 0l-52.91 0c-2.42,0 -4.39,2 -4.39,4.45l0 52.82c0,2.45 1.97,4.45 4.39,4.45l52.91 0c2.42,0 4.41,-2 4.41,-4.45l0 -52.82c0,-2.45 -1.98,-4.45 -4.41,-4.45zm-38.65 52.9l-9.15 0 0 -29.45 9.16 0 0 29.45 -0.01 0zm-4.57 -33.47c-2.93,0 -5.3,-2.38 -5.3,-5.3 0,-2.92 2.37,-5.3 5.3,-5.3 2.92,0 5.3,2.38 5.3,5.3 0,2.93 -2.37,5.3 -5.3,5.3zm38.86 33.47l-9.15 0 0 -14.33c0,-3.42 -0.07,-7.81 -4.75,-7.81 -4.77,0 -5.5,3.72 -5.5,7.56l0 14.57 -9.15 0 0 -29.45 8.77 0 0 4.02 0.12 0c1.23,-2.31 4.22,-4.75 8.67,-4.75 9.26,0 10.98,6.1 10.98,14.04l0 16.14z"/>
 </g>
</svg>
