<?xml version="1.0" encoding="UTF-8"?>
<!DOCTYPE svg PUBLIC "-//W3C//DTD SVG 1.1//EN" "http://www.w3.org/Graphics/SVG/1.1/DTD/svg11.dtd">
<!-- Creator: CorelDRAW 2018 (64 Bit) -->
<svg xmlns="http://www.w3.org/2000/svg" xml:space="preserve" width="12.7mm" height="12.7002mm" version="1.1" style="shape-rendering:geometricPrecision; text-rendering:geometricPrecision; image-rendering:optimizeQuality; fill-rule:evenodd; clip-rule:evenodd"
viewBox="0 0 121 121"
 xmlns:xlink="http://www.w3.org/1999/xlink">
 <defs>
  <style type="text/css">
   <![CDATA[
    .fil0 {fill:black}
   ]]>
  </style>
 </defs>
 <g id="Camada_x0020_1">
  <metadata id="CorelCorpID_0Corel-Layer"/>
  <path class="fil0" d="M112.35 0l-103.74 0c-4.75,0 -8.62,3.92 -8.62,8.72l0 103.55c0,4.81 3.86,8.72 8.62,8.72l103.74 0c4.75,0 8.64,-3.92 8.64,-8.72l0 -103.55c0,-4.81 -3.89,-8.72 -8.64,-8.72zm-75.79 103.71l-17.93 0 0 -57.74 17.96 0 0 57.74 -0.03 0zm-8.97 -65.63c-5.75,0 -10.4,-4.67 -10.4,-10.4 0,-5.73 4.65,-10.4 10.4,-10.4 5.73,0 10.4,4.67 10.4,10.4 0,5.75 -4.65,10.4 -10.4,10.4zm76.19 65.63l-17.93 0 0 -28.09c0,-6.7 -0.14,-15.31 -9.32,-15.31 -9.35,0 -10.78,7.29 -10.78,14.83l0 28.58 -17.93 0 0 -57.74 17.2 0 0 7.89 0.24 0c2.4,-4.54 8.26,-9.32 16.99,-9.32 18.15,0 21.53,11.96 21.53,27.52l0 31.65z"/>
 </g>
</svg>
