<?xml version="1.0" encoding="UTF-8"?>
<!DOCTYPE svg PUBLIC "-//W3C//DTD SVG 1.1//EN" "http://www.w3.org/Graphics/SVG/1.1/DTD/svg11.dtd">
<!-- Creator: CorelDRAW 2018 (64 Bit) -->
<svg xmlns="http://www.w3.org/2000/svg" xml:space="preserve" width="16.9333mm" height="16.9334mm" version="1.1" style="shape-rendering:geometricPrecision; text-rendering:geometricPrecision; image-rendering:optimizeQuality; fill-rule:evenodd; clip-rule:evenodd"
viewBox="0 0 208.49 208.49"
 xmlns:xlink="http://www.w3.org/1999/xlink">
 <defs>
  <style type="text/css">
   <![CDATA[
    .fil0 {fill:black}
   ]]>
  </style>
 </defs>
 <g id="Camada_x0020_1">
  <metadata id="CorelCorpID_0Corel-Layer"/>
  <path class="fil0" d="M193.59 0l-178.75 0c-8.19,0 -14.85,6.75 -14.85,15.03l0 178.43c0,8.28 6.65,15.03 14.85,15.03l178.75 0c8.19,0 14.89,-6.75 14.89,-15.03l0 -178.43c0,-8.28 -6.7,-15.03 -14.89,-15.03zm-130.58 178.7l-30.9 0 0 -99.5 30.95 0 0 99.5 -0.05 0zm-15.45 -113.09c-9.91,0 -17.92,-8.05 -17.92,-17.92 0,-9.87 8.01,-17.92 17.92,-17.92 9.87,0 17.92,8.05 17.92,17.92 0,9.91 -8,17.92 -17.92,17.92zm131.28 113.09l-30.9 0 0 -48.4c0,-11.54 -0.23,-26.39 -16.06,-26.39 -16.1,0 -18.57,12.57 -18.57,25.55l0 49.24 -30.9 0 0 -99.5 29.64 0 0 13.59 0.42 0c4.14,-7.82 14.24,-16.06 29.27,-16.06 31.27,0 37.09,20.62 37.09,47.42l0 54.54z"/>
 </g>
</svg>
