<?xml version="1.0" encoding="UTF-8"?>
<!DOCTYPE svg PUBLIC "-//W3C//DTD SVG 1.1//EN" "http://www.w3.org/Graphics/SVG/1.1/DTD/svg11.dtd">
<!-- Creator: CorelDRAW 2018 (64 Bit) -->
<svg xmlns="http://www.w3.org/2000/svg" xml:space="preserve" width="42.3331mm" height="42.3332mm" version="1.1" style="shape-rendering:geometricPrecision; text-rendering:geometricPrecision; image-rendering:optimizeQuality; fill-rule:evenodd; clip-rule:evenodd"
viewBox="0 0 1099.89 1099.9"
 xmlns:xlink="http://www.w3.org/1999/xlink">
 <defs>
  <style type="text/css">
   <![CDATA[
    .fil0 {fill:black}
   ]]>
  </style>
 </defs>
 <g id="Camada_x0020_1">
  <metadata id="CorelCorpID_0Corel-Layer"/>
  <path class="fil0" d="M1021.33 0l-943.01 0c-43.21,0 -78.32,35.6 -78.32,79.3l0 941.3c0,43.7 35.11,79.3 78.32,79.3l943.01 0c43.21,0 78.56,-35.6 78.56,-79.3l0 -941.3c0,-43.7 -35.35,-79.3 -78.56,-79.3zm-688.91 942.77l-163.02 0 0 -524.91 163.26 0 0 524.91 -0.25 0zm-81.51 -596.6c-52.29,0 -94.52,-42.48 -94.52,-94.52 0,-52.05 42.23,-94.52 94.52,-94.52 52.05,0 94.52,42.47 94.52,94.52 0,52.29 -42.23,94.52 -94.52,94.52zm692.59 596.6l-163.02 0 0 -255.33c0,-60.89 -1.23,-139.21 -84.7,-139.21 -84.95,0 -97.96,66.29 -97.96,134.79l0 259.75 -163.02 0 0 -524.91 156.39 0 0 71.69 2.21 0c21.85,-41.25 75.13,-84.7 154.43,-84.7 164.98,0 195.67,108.76 195.67,250.18l0 287.74z"/>
 </g>
</svg>
