<?xml version="1.0" encoding="UTF-8"?>
<!DOCTYPE svg PUBLIC "-//W3C//DTD SVG 1.1//EN" "http://www.w3.org/Graphics/SVG/1.1/DTD/svg11.dtd">
<!-- Creator: CorelDRAW 2018 (64 Bit) -->
<svg xmlns="http://www.w3.org/2000/svg" xml:space="preserve" width="12.7mm" height="12.7mm" version="1.1" style="shape-rendering:geometricPrecision; text-rendering:geometricPrecision; image-rendering:optimizeQuality; fill-rule:evenodd; clip-rule:evenodd"
viewBox="0 0 87.02 87.02"
 xmlns:xlink="http://www.w3.org/1999/xlink">
 <defs>
  <style type="text/css">
   <![CDATA[
    .fil0 {fill:#24292F}
   ]]>
  </style>
 </defs>
 <g id="Camada_x0020_1">
  <metadata id="CorelCorpID_0Corel-Layer"/>
  <path class="fil0" d="M77.7 0l-68.37 0c-5.15,0 -9.32,4.18 -9.32,9.32l0 68.37c0,5.15 4.18,9.32 9.32,9.32l68.37 0c5.15,0 9.32,-4.18 9.32,-9.32l0 -68.37c0,-5.15 -4.18,-9.32 -9.32,-9.32l0 0zm-34.66 68.38c-0.27,0 -0.53,-0.08 -0.77,-0.2l-2.44 -1.45c-0.37,-0.2 -0.19,-0.28 -0.06,-0.32 0.48,-0.17 0.58,-0.2 1.1,-0.51 0.05,-0.03 0.13,-0.01 0.18,0.01l1.88 1.12c0.06,0.04 0.17,0.04 0.23,0l7.33 -4.24c0.06,-0.04 0.11,-0.11 0.11,-0.2l0 -8.46c0,-0.09 -0.04,-0.17 -0.11,-0.2l-7.33 -4.23c-0.06,-0.04 -0.15,-0.04 -0.23,0l-7.33 4.23c-0.08,0.04 -0.11,0.13 -0.11,0.2l0 8.46c0,0.08 0.05,0.15 0.11,0.19l2 1.16c1.09,0.55 1.76,-0.1 1.76,-0.74l0 -8.36c0,-0.11 0.09,-0.22 0.22,-0.22l0.93 0c0.11,0 0.22,0.09 0.22,0.22l0 8.36c0,1.46 -0.79,2.28 -2.17,2.28 -0.42,0 -0.76,0 -1.69,-0.46l-1.93 -1.1c-0.47,-0.28 -0.77,-0.79 -0.77,-1.33l0 -8.46c0,-0.55 0.29,-1.07 0.77,-1.33l7.33 -4.24c0.47,-0.27 1.08,-0.27 1.54,0l7.33 4.24c0.47,0.28 0.77,0.79 0.77,1.33l0 8.46c0,0.55 -0.29,1.07 -0.77,1.33l-7.33 4.24c-0.22,0.14 -0.48,0.22 -0.76,0.22l0 0zm5.93 -8.35c0,-1.59 -1.07,-2 -3.32,-2.31 -2.28,-0.3 -2.51,-0.46 -2.51,-0.99 0,-0.44 0.19,-1.03 1.88,-1.03 1.51,0 2.07,0.33 2.3,1.34 0.03,0.1 0.1,0.17 0.2,0.17l0.95 0c0.06,0 0.11,-0.03 0.15,-0.06 0.04,-0.05 0.06,-0.1 0.05,-0.17 -0.15,-1.75 -1.31,-2.56 -3.65,-2.56 -2.09,0 -3.34,0.89 -3.34,2.36 0,1.61 1.24,2.04 3.25,2.25 2.4,0.24 2.59,0.58 2.59,1.05 0,0.82 -0.66,1.17 -2.21,1.17 -1.94,0 -2.37,-0.48 -2.51,-1.45 -0.01,-0.1 -0.1,-0.18 -0.22,-0.18l-0.95 0c-0.11,0 -0.22,0.09 -0.22,0.22 0,1.23 0.67,2.7 3.88,2.7 2.35,0 3.68,-0.91 3.68,-2.51zm6.92 -6.36c0,0.77 -0.64,1.41 -1.41,1.41 -0.77,0 -1.41,-0.63 -1.41,-1.41 0,-0.8 0.66,-1.41 1.41,-1.41 0.76,-0.01 1.41,0.61 1.41,1.41zm-0.23 0c0,-0.66 -0.53,-1.18 -1.19,-1.18 -0.65,0 -1.18,0.52 -1.18,1.18 0,0.66 0.53,1.19 1.18,1.19 0.66,-0.01 1.19,-0.55 1.19,-1.19zm-0.57 0.79l-0.33 0c-0.01,-0.08 -0.06,-0.48 -0.06,-0.49 -0.02,-0.09 -0.05,-0.14 -0.16,-0.14l-0.28 0 0 0.63 -0.3 0 0 -1.59 0.55 0c0.19,0 0.56,0 0.56,0.42 0,0.29 -0.19,0.36 -0.3,0.39 0.22,0.01 0.23,0.15 0.27,0.36 0.01,0.13 0.04,0.34 0.08,0.42l0 0zm-0.36 -1.12c0,-0.22 -0.15,-0.22 -0.23,-0.22l-0.25 0 0 0.44 0.24 0c0.2,0 0.24,-0.14 0.24,-0.23zm-34.4 -18.08c0,-0.34 -0.18,-0.65 -0.47,-0.81l-7.78 -4.48c-0.13,-0.08 -0.28,-0.11 -0.43,-0.13l-0.08 0c-0.15,0 -0.29,0.05 -0.43,0.13l-7.77 4.48c-0.29,0.17 -0.47,0.48 -0.47,0.81l0.01 12.06c0,0.17 0.09,0.32 0.23,0.41 0.14,0.09 0.32,0.09 0.47,0l4.62 -2.65c0.29,-0.18 0.47,-0.48 0.47,-0.81l0 -5.63c0,-0.33 0.18,-0.65 0.47,-0.81l1.97 -1.13c0.15,-0.09 0.3,-0.13 0.47,-0.13 0.17,0 0.33,0.04 0.47,0.13l1.97 1.13c0.29,0.17 0.47,0.48 0.47,0.81l0 5.63c0,0.33 0.18,0.65 0.47,0.81l4.62 2.65c0.14,0.09 0.33,0.09 0.47,0 0.14,-0.08 0.23,-0.24 0.23,-0.41l0.02 -12.06zm42.54 -13.16l0 22.39c0,0.33 -0.18,0.65 -0.47,0.81l-7.78 4.49c-0.29,0.17 -0.65,0.17 -0.94,0l-7.78 -4.49c-0.29,-0.17 -0.47,-0.48 -0.47,-0.81l0 -8.98c0,-0.33 0.18,-0.65 0.47,-0.81l7.78 -4.49c0.29,-0.17 0.65,-0.17 0.94,0l1.94 1.12c0.22,0.13 0.49,-0.04 0.49,-0.28l0 -11.93c0,-0.36 0.38,-0.58 0.7,-0.41l4.63 2.59c0.29,0.15 0.48,0.47 0.48,0.81zm-5.84 16.36c0,-0.09 -0.05,-0.17 -0.11,-0.2l-2.66 -1.55c-0.08,-0.04 -0.17,-0.04 -0.24,0l-2.66 1.55c-0.08,0.04 -0.11,0.11 -0.11,0.2l0 3.08c0,0.09 0.05,0.17 0.11,0.2l2.66 1.54c0.08,0.04 0.17,0.04 0.23,0l2.66 -1.54c0.08,-0.04 0.11,-0.11 0.11,-0.2l0 -3.08 0.01 0zm26.62 -0.09c0.29,-0.17 0.47,-0.48 0.47,-0.81l0 -2.17c0,-0.33 -0.18,-0.65 -0.47,-0.81l-7.73 -4.49c-0.29,-0.17 -0.65,-0.17 -0.94,0l-7.78 4.49c-0.29,0.16 -0.47,0.48 -0.47,0.81l0 8.98c0,0.34 0.18,0.65 0.47,0.81l7.73 4.4c0.28,0.17 0.63,0.17 0.93,0l4.67 -2.6c0.32,-0.18 0.32,-0.63 0,-0.81l-7.83 -4.49c-0.15,-0.09 -0.24,-0.24 -0.24,-0.41l0 -2.82c0,-0.17 0.09,-0.32 0.24,-0.41l2.44 -1.41c0.14,-0.09 0.33,-0.09 0.47,0l2.44 1.41c0.14,0.09 0.24,0.24 0.24,0.41l0 2.21c0,0.35 0.39,0.58 0.71,0.41l4.66 -2.7 0 0zm-9.81 0.44c-0.05,0.04 -0.09,0.09 -0.09,0.15l0 1.73c0,0.06 0.04,0.13 0.09,0.15l1.5 0.86c0.05,0.04 0.13,0.04 0.18,0l1.5 -0.86c0.05,-0.04 0.09,-0.09 0.09,-0.15l0 -1.73c0,-0.06 -0.04,-0.13 -0.09,-0.15l-1.5 -0.86c-0.05,-0.04 -0.13,-0.04 -0.18,0l-1.5 0.86zm-32.26 5.52l0 -8.93c0,-0.33 -0.2,-0.65 -0.49,-0.81l-7.75 -4.47c-0.27,-0.15 -0.63,-0.18 -0.94,0l-7.75 4.47c-0.29,0.17 -0.49,0.47 -0.49,0.81l0 8.93c0,0.36 0.24,0.66 0.51,0.81l7.77 4.47c0.3,0.18 0.66,0.17 0.94,0l7.74 -4.47c0.23,-0.13 0.39,-0.34 0.46,-0.6 0.01,-0.06 0.03,-0.14 0.03,-0.22zm-9.43 -15.85l-0.1 0.06 0.14 0 -0.04 -0.06 0 0zm9.67 16.52l-0.05 -0.09 0 0.11 0.05 -0.03z"/>
 </g>
</svg>
