<?xml version="1.0" encoding="UTF-8"?>
<!DOCTYPE svg PUBLIC "-//W3C//DTD SVG 1.1//EN" "http://www.w3.org/Graphics/SVG/1.1/DTD/svg11.dtd">
<!-- Creator: CorelDRAW 2018 (64 Bit) -->
<svg xmlns="http://www.w3.org/2000/svg" xml:space="preserve" width="12.7mm" height="12.7mm" version="1.1" style="shape-rendering:geometricPrecision; text-rendering:geometricPrecision; image-rendering:optimizeQuality; fill-rule:evenodd; clip-rule:evenodd"
viewBox="0 0 64.76 64.76"
 xmlns:xlink="http://www.w3.org/1999/xlink">
 <defs>
  <style type="text/css">
   <![CDATA[
    .fil0 {fill:#24292F}
   ]]>
  </style>
 </defs>
 <g id="Camada_x0020_1">
  <metadata id="CorelCorpID_0Corel-Layer"/>
  <path class="fil0" d="M57.82 0l-50.88 0c-3.83,0 -6.94,3.11 -6.94,6.94l0 50.88c0,3.83 3.11,6.94 6.94,6.94l50.88 0c3.83,0 6.94,-3.11 6.94,-6.94l0 -50.88c0,-3.83 -3.11,-6.94 -6.94,-6.94l0 0zm-6.29 23.08c-0.64,-0.21 -1.27,-0.41 -1.91,-0.6 0.11,-0.44 0.2,-0.87 0.3,-1.31 1.45,-7.04 0.5,-12.69 -2.73,-14.56 -3.1,-1.78 -8.17,0.07 -13.29,4.53 -0.51,0.44 -1,0.9 -1.48,1.36 -0.32,-0.31 -0.65,-0.61 -0.98,-0.91 -5.37,-4.77 -10.76,-6.78 -13.98,-4.9 -3.09,1.79 -4.01,7.12 -2.72,13.78 0.13,0.66 0.27,1.31 0.44,1.97 -0.76,0.21 -1.5,0.45 -2.2,0.7 -6.3,2.18 -10.83,5.63 -10.83,9.2 0,3.68 4.82,7.38 11.37,9.62 0.53,0.18 1.06,0.35 1.61,0.51 -0.18,0.71 -0.33,1.4 -0.47,2.13 -1.24,6.55 -0.27,11.75 2.82,13.53 3.19,1.84 8.55,-0.05 13.76,-4.62 0.41,-0.37 0.83,-0.74 1.24,-1.15 0.52,0.51 1.06,0.99 1.61,1.46 5.05,4.34 10.05,6.1 13.13,4.32 3.19,-1.84 4.23,-7.43 2.88,-14.23 -0.11,-0.52 -0.22,-1.05 -0.35,-1.59 0.38,-0.11 0.74,-0.22 1.11,-0.34 6.81,-2.25 11.75,-5.9 11.75,-9.64 0,-3.58 -4.65,-7.05 -11.07,-9.26l0 0zm-15.97 -10.02c4.39,-3.83 8.49,-5.33 10.35,-4.25 1.99,1.15 2.76,5.77 1.51,11.85 -0.08,0.4 -0.17,0.79 -0.27,1.18 -2.62,-0.59 -5.28,-1.01 -7.95,-1.25 -1.53,-2.2 -3.21,-4.3 -5.03,-6.27 0.46,-0.44 0.91,-0.85 1.38,-1.26l0 0zm-13.66 25.4c0.6,1.03 1.22,2.05 1.87,3.06 -1.84,-0.2 -3.67,-0.5 -5.48,-0.89 0.52,-1.7 1.17,-3.46 1.92,-5.25 0.54,1.04 1.1,2.07 1.69,3.08l0 0zm-3.58 -14.2c1.7,-0.38 3.51,-0.69 5.38,-0.92 -0.63,0.98 -1.24,1.98 -1.82,3 -0.58,1 -1.15,2.03 -1.68,3.07 -0.74,-1.76 -1.37,-3.48 -1.89,-5.15zm3.23 8.13c0.78,-1.63 1.63,-3.22 2.53,-4.79 0.9,-1.57 1.87,-3.09 2.88,-4.59 1.77,-0.13 3.58,-0.2 5.42,-0.2 1.84,0 3.66,0.07 5.42,0.2 1,1.49 1.96,3.01 2.87,4.57 0.91,1.56 1.76,3.15 2.56,4.77 -0.79,1.63 -1.64,3.23 -2.55,4.82 -0.9,1.57 -1.85,3.09 -2.86,4.6 -1.76,0.13 -3.59,0.19 -5.44,0.19 -1.85,0 -3.65,-0.06 -5.38,-0.17 -1.03,-1.5 -2,-3.03 -2.9,-4.6 -0.91,-1.57 -1.75,-3.16 -2.54,-4.79zm21.32 6.04c0.6,-1.04 1.17,-2.09 1.72,-3.15 0.76,1.71 1.42,3.45 2,5.23 -1.83,0.41 -3.68,0.73 -5.55,0.94 0.64,-0.99 1.24,-2.01 1.83,-3.02l0 0zm1.7 -9.03c-0.55,-1.04 -1.12,-2.08 -1.71,-3.09 -0.58,-1 -1.18,-2 -1.81,-2.98 1.9,0.24 3.72,0.56 5.42,0.94 -0.54,1.75 -1.18,3.45 -1.9,5.12zm-12.17 -13.28c1.24,1.35 2.41,2.76 3.49,4.23 -2.34,-0.11 -4.69,-0.11 -7.02,0 1.16,-1.52 2.35,-2.94 3.53,-4.23zm-13.69 -7.24c1.98,-1.16 6.39,0.5 11.03,4.6 0.3,0.26 0.59,0.54 0.9,0.83 -1.83,1.97 -3.52,4.07 -5.06,6.27 -2.67,0.24 -5.31,0.65 -7.93,1.23 -0.15,-0.6 -0.28,-1.22 -0.41,-1.83 -1.11,-5.71 -0.38,-10.02 1.49,-11.1l0 0zm-2.89 31.12c-0.5,-0.14 -0.98,-0.3 -1.46,-0.46 -2.51,-0.79 -5.37,-2.04 -7.44,-3.68 -1.19,-0.83 -1.99,-2.1 -2.22,-3.53 0,-2.16 3.73,-4.92 9.11,-6.8 0.67,-0.24 1.36,-0.45 2.04,-0.65 0.8,2.56 1.77,5.08 2.89,7.51 -1.13,2.47 -2.11,5.02 -2.93,7.61l0 0zm13.76 11.57c-1.95,1.78 -4.2,3.2 -6.66,4.17 -1.31,0.63 -2.82,0.68 -4.17,0.15 -1.88,-1.09 -2.66,-5.25 -1.59,-10.86 0.13,-0.66 0.27,-1.32 0.44,-1.97 2.64,0.57 5.31,0.96 8.02,1.16 1.56,2.21 3.27,4.32 5.1,6.3 -0.38,0.37 -0.76,0.72 -1.13,1.05l0 0zm2.89 -2.87c-1.2,-1.3 -2.41,-2.74 -3.58,-4.29 1.13,0.05 2.3,0.07 3.48,0.07 1.22,0 2.41,-0.02 3.59,-0.08 -1.09,1.5 -2.25,2.93 -3.49,4.3l0 0zm15.43 3.54c-0.11,1.44 -0.81,2.79 -1.95,3.69 -1.88,1.09 -5.88,-0.33 -10.2,-4.04 -0.5,-0.42 -0.99,-0.89 -1.5,-1.36 1.81,-2 3.47,-4.11 4.98,-6.33 2.7,-0.22 5.4,-0.64 8.05,-1.24 0.12,0.48 0.22,0.97 0.32,1.44 0.58,2.55 0.67,5.21 0.3,7.83l0 0zm2.15 -12.69c-0.33,0.11 -0.66,0.21 -1,0.31 -0.83,-2.57 -1.84,-5.09 -3.01,-7.53 1.13,-2.41 2.09,-4.89 2.89,-7.43 0.61,0.18 1.2,0.37 1.77,0.55 5.5,1.89 9.36,4.7 9.36,6.85 0,2.31 -4.12,5.3 -10.01,7.25zm-17.67 -1.77c2.99,0 5.41,-2.42 5.41,-5.41 0,-2.99 -2.42,-5.41 -5.41,-5.41 -2.99,0 -5.41,2.42 -5.41,5.41 0,2.99 2.42,5.41 5.41,5.41z"/>
 </g>
</svg>
