<?xml version="1.0" encoding="UTF-8"?>
<!DOCTYPE svg PUBLIC "-//W3C//DTD SVG 1.1//EN" "http://www.w3.org/Graphics/SVG/1.1/DTD/svg11.dtd">
<!-- Creator: CorelDRAW 2018 (64 Bit) -->
<?xml-stylesheet href="typescript.css" type="text/css"?>
<svg xmlns="http://www.w3.org/2000/svg" xml:space="preserve" width="12.7mm" height="12.7mm" version="1.1" style="shape-rendering:geometricPrecision; text-rendering:geometricPrecision; image-rendering:optimizeQuality; fill-rule:evenodd; clip-rule:evenodd"
viewBox="0 0 0.187 0.187"
 xmlns:xlink="http://www.w3.org/1999/xlink">
 <g id="Camada_x0020_1">
  <metadata id="CorelCorpID_0Corel-Layer"/>
  <path class="fil0" d="M0.0193 0l0.1483 0c0.0105,0.0004 0.019,0.0088 0.0193,0.0193l0 0.1483c-0.0004,0.0105 -0.0088,0.019 -0.0193,0.0193l-0.1483 0c-0.0105,-0.0004 -0.019,-0.0088 -0.0193,-0.0193l0 -0.1483c0.0004,-0.0105 0.0088,-0.019 0.0193,-0.0193zm0.0875 0.0939l0.0001 0.0077 -0.0243 0 0 0.0692 -0.0172 0 0 -0.0692 -0.0243 0 0 -0.0075c0,-0.0042 0.0001,-0.0076 0.0002,-0.0077 0.0001,-0.0001 0.0149,-0.0002 0.0329,-0.0002l0.0327 0.0001 0.0001 0.0076zm0.0439 -0.0078c0.0047,0.0012 0.0084,0.0033 0.0117,0.0067 0.0017,0.0018 0.0043,0.0052 0.0045,0.006 0.0001,0.0002 -0.0081,0.0057 -0.013,0.0088 -0.0002,0.0001 -0.0009,-0.0007 -0.0017,-0.0018 -0.0024,-0.0035 -0.0049,-0.005 -0.0088,-0.0053 -0.0057,-0.0004 -0.0093,0.0026 -0.0093,0.0075 0,0.0015 0.0002,0.0023 0.0008,0.0035 0.0012,0.0026 0.0036,0.0041 0.0108,0.0073 0.0134,0.0058 0.0191,0.0096 0.0227,0.015 0.004,0.006 0.0049,0.0156 0.0022,0.0228 -0.003,0.0078 -0.0103,0.0131 -0.0207,0.0148 -0.0032,0.0006 -0.0108,0.0005 -0.0142,-0.0001 -0.0075,-0.0013 -0.0146,-0.005 -0.019,-0.0099 -0.0017,-0.0019 -0.0051,-0.0069 -0.0049,-0.0072 0.0001,-0.0001 0.0009,-0.0006 0.0017,-0.0011 0.0008,-0.0005 0.004,-0.0023 0.0069,-0.004l0.0054 -0.0031 0.0011 0.0017c0.0016,0.0024 0.005,0.0057 0.0071,0.0068 0.006,0.0031 0.0142,0.0027 0.0182,-0.0009 0.0017,-0.0016 0.0024,-0.0032 0.0024,-0.0056 0,-0.0022 -0.0003,-0.0031 -0.0014,-0.0047 -0.0015,-0.0021 -0.0044,-0.0038 -0.0129,-0.0075 -0.0096,-0.0042 -0.0138,-0.0067 -0.0176,-0.0108 -0.0022,-0.0024 -0.0043,-0.0062 -0.0051,-0.0093 -0.0007,-0.0026 -0.0009,-0.0093 -0.0003,-0.0119 0.002,-0.0093 0.009,-0.0158 0.0192,-0.0177 0.0033,-0.0006 0.011,-0.0004 0.0142,0.0004z"/>
 </g>
</svg>
