<?xml version="1.0" encoding="UTF-8"?>
<!DOCTYPE svg PUBLIC "-//W3C//DTD SVG 1.1//EN" "http://www.w3.org/Graphics/SVG/1.1/DTD/svg11.dtd">
<!-- Creator: CorelDRAW 2018 (64 Bit) -->
<svg xmlns="http://www.w3.org/2000/svg" xml:space="preserve" width="12.7mm" height="12.7mm" version="1.1" style="shape-rendering:geometricPrecision; text-rendering:geometricPrecision; image-rendering:optimizeQuality; fill-rule:evenodd; clip-rule:evenodd"
viewBox="0 0 748.1 748.1"
 xmlns:xlink="http://www.w3.org/1999/xlink">
 <defs>
  <style type="text/css">
   <![CDATA[
    .fil0 {fill:black}
   ]]>
  </style>
 </defs>
 <g id="Camada_x0020_1">
  <metadata id="CorelCorpID_0Corel-Layer"/>
  <path class="fil0" d="M374.06 151.62c-121.4,0 -220.09,98.69 -220.26,220.09 0,41.58 11.69,82.16 33.74,117.06l5.17 8.35 -22.21 81.15 83.33 -21.87 8.02 4.84c33.73,20.04 72.47,30.73 112.04,30.73l0.17 0c121.23,0 222.59,-98.69 222.59,-220.09 0,-58.78 -25.38,-114.05 -66.96,-155.63 -41.75,-41.75 -96.85,-64.62 -155.63,-64.62zm129.41 314.6c-5.51,15.53 -31.89,29.55 -44.59,31.39 -21.04,3.18 -37.4,1.5 -79.32,-16.53 -66.29,-28.72 -109.71,-95.52 -113.05,-99.86 -3.34,-4.34 -27.05,-35.9 -27.05,-68.46 0,-32.56 17.03,-48.6 23.21,-55.28 6.01,-6.67 13.19,-8.35 17.7,-8.35 4.34,0 8.85,0 12.69,0.16 4.01,0.17 9.52,-1.5 14.86,11.36 5.51,13.19 18.7,45.75 20.37,49.09 1.67,3.34 2.84,7.18 0.5,11.52 -12.69,25.38 -26.21,24.38 -19.37,36.07 25.55,43.91 51.09,59.11 90,78.65 6.68,3.34 10.52,2.84 14.36,-1.67 3.84,-4.34 16.53,-19.37 20.88,-25.88 4.34,-6.68 8.85,-5.51 14.86,-3.34 6.01,2.17 38.57,18.2 45.25,21.54 6.68,3.34 11.02,5.01 12.69,7.68 1.5,3.18 1.5,16.53 -4.01,31.9l0 0zm164.48 -466.22l-587.79 0c-44.25,0 -80.15,35.9 -80.15,80.15l0 587.79c0,44.26 35.9,80.16 80.15,80.16l587.79 0c44.25,0 80.15,-35.9 80.15,-80.16l0 -587.79c0,-44.26 -35.9,-80.15 -80.15,-80.15l0 0zm-294.06 636.55c-44.41,0 -88,-11.19 -126.58,-32.23l-140.43 36.9 37.57 -137.27c-23.21,-40.07 -35.4,-85.66 -35.4,-132.42 0.16,-145.94 118.89,-264.67 264.84,-264.67 70.8,0 137.26,27.56 187.36,77.65 49.93,50.1 79.98,116.56 79.98,187.36 0,145.94 -121.4,264.67 -267.34,264.67z"/>
 </g>
</svg>
