<?xml version="1.0" encoding="UTF-8"?>
<!DOCTYPE svg PUBLIC "-//W3C//DTD SVG 1.1//EN" "http://www.w3.org/Graphics/SVG/1.1/DTD/svg11.dtd">
<!-- Creator: CorelDRAW 2018 (64 Bit) -->
<svg xmlns="http://www.w3.org/2000/svg" xml:space="preserve" width="12.7mm" height="12.7mm" version="1.1" style="shape-rendering:geometricPrecision; text-rendering:geometricPrecision; image-rendering:optimizeQuality; fill-rule:evenodd; clip-rule:evenodd"
viewBox="0 0 77.44 77.44"
 xmlns:xlink="http://www.w3.org/1999/xlink">
 <defs>
  <style type="text/css">
   <![CDATA[
    .fil0 {fill:#24292F}
   ]]>
  </style>
 </defs>
 <g id="Camada_x0020_1">
  <metadata id="CorelCorpID_0Corel-Layer"/>
  <path class="fil0" d="M69.15 0l-60.85 0c-4.58,0 -8.3,3.72 -8.3,8.3l0 60.85c0,4.58 3.72,8.3 8.3,8.3l60.85 0c4.58,0 8.3,-3.72 8.3,-8.3l0 -60.85c0,-4.58 -3.72,-8.3 -8.3,-8.3l0 0zm-30.44 65.3c-4.51,0 -8.93,-1.13 -12.84,-3.27l-14.25 3.74 3.81 -13.93c-2.35,-4.07 -3.59,-8.69 -3.59,-13.43 0.02,-14.81 12.06,-26.85 26.87,-26.85 7.18,0 13.93,2.79 19.01,7.88 5.06,5.08 8.11,11.83 8.11,19.01 0,14.81 -12.32,26.85 -27.12,26.85zm0.02 -49.2c-12.32,0 -22.33,10.01 -22.34,22.33 0,4.22 1.19,8.33 3.42,11.88l0.53 0.85 -2.25 8.23 8.45 -2.22 0.81 0.49c3.42,2.03 7.35,3.12 11.37,3.12l0.02 0c12.3,0 22.58,-10.01 22.58,-22.33 0,-5.96 -2.57,-11.57 -6.79,-15.79 -4.24,-4.24 -9.83,-6.56 -15.79,-6.56zm13.13 31.92c-0.56,1.58 -3.24,3 -4.52,3.19 -2.13,0.32 -3.79,0.15 -8.05,-1.68 -6.73,-2.91 -11.13,-9.69 -11.47,-10.13 -0.34,-0.44 -2.74,-3.64 -2.74,-6.95 0,-3.3 1.73,-4.93 2.36,-5.61 0.61,-0.68 1.34,-0.85 1.8,-0.85 0.44,0 0.9,0 1.29,0.02 0.41,0.02 0.97,-0.15 1.51,1.15 0.56,1.34 1.9,4.64 2.07,4.98 0.17,0.34 0.29,0.73 0.05,1.17 -1.29,2.58 -2.66,2.47 -1.97,3.66 2.59,4.46 5.18,6 9.13,7.98 0.68,0.34 1.07,0.29 1.46,-0.17 0.39,-0.44 1.68,-1.97 2.12,-2.63 0.44,-0.68 0.9,-0.56 1.51,-0.34 0.61,0.22 3.91,1.85 4.59,2.18 0.68,0.34 1.12,0.51 1.29,0.78 0.15,0.32 0.15,1.68 -0.41,3.24l0 0z"/>
 </g>
</svg>
